<svg xmlns="http://www.w3.org/2000/svg" xmlns:xlink="http://www.w3.org/1999/xlink" width="500" zoomAndPan="magnify" viewBox="0 0 375 374.999991" height="500" preserveAspectRatio="xMidYMid meet" version="1.0"><defs><clipPath id="37afe06054"><path d="M 107.675781 208.285156 L 355 208.285156 L 355 260 L 107.675781 260 Z M 107.675781 208.285156 " clip-rule="nonzero"/></clipPath><clipPath id="30f4420cec"><path d="M 20 118 L 267.316406 118 L 267.316406 180 L 20 180 Z M 20 118 " clip-rule="nonzero"/></clipPath><clipPath id="5923e69822"><path d="M 47.167969 47.167969 L 327.832031 47.167969 L 327.832031 327.832031 L 47.167969 327.832031 Z M 47.167969 47.167969 " clip-rule="nonzero"/></clipPath><clipPath id="96ae7178d5"><path d="M 187.5 47.167969 C 109.996094 47.167969 47.167969 109.996094 47.167969 187.5 C 47.167969 265.003906 109.996094 327.832031 187.5 327.832031 C 265.003906 327.832031 327.832031 265.003906 327.832031 187.5 C 327.832031 109.996094 265.003906 47.167969 187.5 47.167969 Z M 187.5 47.167969 " clip-rule="nonzero"/></clipPath><clipPath id="0c45c6d3fd"><path d="M 26.324219 138 L 273.824219 138 L 273.824219 199 L 26.324219 199 Z M 26.324219 138 " clip-rule="nonzero"/></clipPath><clipPath id="9bd432fc8c"><path d="M 101.167969 187.347656 L 348.667969 187.347656 L 348.667969 239 L 101.167969 239 Z M 101.167969 187.347656 " clip-rule="nonzero"/></clipPath></defs><g clip-path="url(#37afe06054)"><path fill="#fdfdfd" d="M 210.484375 225.453125 C 206.507812 225.453125 202.589844 224.484375 199.082031 222.652344 L 188.539062 214.070312 C 183.964844 210.335938 178.179688 208.414062 172.285156 208.621094 L 110.496094 214.105469 C 108.925781 214.164062 107.675781 215.449219 107.675781 216.960938 C 107.675781 218.472656 108.925781 219.667969 110.496094 219.613281 L 165.398438 216.945312 C 167.5625 216.867188 169.335938 218.4375 169.335938 220.433594 C 169.335938 222.429688 167.5625 224.074219 165.398438 224.109375 L 110.496094 225.675781 C 108.925781 225.695312 107.675781 226.945312 107.675781 228.457031 C 107.675781 229.96875 108.925781 231.183594 110.496094 231.183594 L 165.398438 230.621094 C 167.5625 230.605469 169.335938 232.207031 169.335938 234.207031 C 169.335938 236.203125 167.5625 237.808594 165.398438 237.789062 L 110.496094 237.230469 C 108.925781 237.246094 107.675781 238.460938 107.675781 239.972656 C 107.675781 241.484375 108.925781 242.734375 110.496094 242.773438 L 165.398438 244.339844 C 167.5625 244.375 169.335938 246.019531 169.335938 248.015625 C 169.335938 250.011719 167.5625 251.578125 165.398438 251.503906 L 110.496094 248.835938 C 108.925781 248.78125 107.675781 249.976562 107.675781 251.488281 C 107.675781 253 108.925781 254.285156 110.496094 254.339844 L 172.285156 259.828125 C 178.179688 260.035156 183.945312 258.09375 188.539062 254.378906 L 199.082031 245.792969 C 202.609375 243.945312 206.507812 242.996094 210.484375 242.996094 C 210.484375 242.996094 269.472656 239 326.410156 246.558594 C 326.410156 246.558594 355 252.402344 355 234.242188 C 355 216.085938 326.410156 221.925781 326.410156 221.925781 C 269.472656 229.445312 210.484375 225.453125 210.484375 225.453125 Z M 210.484375 225.453125 " fill-opacity="1" fill-rule="nonzero"/></g><g clip-path="url(#30f4420cec)"><path fill="#fdfdfd" d="M 178.375 157.332031 C 183.210938 165.1875 189.644531 181.324219 217.824219 178.753906 C 245.015625 176.273438 266.40625 164.03125 267.277344 150.347656 C 267.28125 150.519531 267.296875 150.691406 267.296875 150.867188 C 267.296875 150.71875 267.300781 150.582031 267.296875 150.4375 C 267.308594 150.183594 267.296875 149.925781 267.296875 149.667969 C 267.296875 149.394531 267.308594 149.125 267.296875 148.851562 C 267.308594 148.613281 267.296875 148.378906 267.296875 148.144531 C 267.296875 147.894531 267.308594 147.644531 267.296875 147.394531 C 267.308594 147.179688 267.296875 146.960938 267.296875 146.746094 C 267.296875 146.933594 267.273438 147.121094 267.261719 147.3125 C 266.261719 134.375 244.925781 121.25 217.824219 118.925781 C 189.644531 116.511719 183.703125 132.023438 178.375 139.054688 C 174.433594 144.242188 166.164062 143.75 166.164062 143.75 C 166.164062 143.75 159.34375 143.390625 144.816406 142.273438 C 130.910156 141.203125 58.117188 135.070312 44.90625 135.070312 C 32.496094 135.070312 20.929688 133.652344 20.058594 145.289062 C 20.046875 145.152344 20.023438 145.027344 20.019531 144.890625 L 20.019531 144.65625 C 20.003906 145.105469 20.003906 145.574219 20.019531 146.058594 C 20.003906 146.578125 19.996094 147.113281 20.019531 147.683594 L 20.023438 147.742188 C 20.019531 148.035156 20.007812 148.324219 20.011719 148.636719 C 20.019531 148.410156 20.035156 148.203125 20.046875 147.988281 C 20.933594 161.859375 43.050781 159.089844 43.050781 159.089844 C 43.050781 159.089844 130.207031 154.605469 144.734375 153.546875 C 160.453125 152.394531 166.164062 152.25 166.164062 152.25 C 166.164062 152.25 174.882812 151.667969 178.375 157.332031 " fill-opacity="1" fill-rule="nonzero"/></g><g clip-path="url(#5923e69822)"><g clip-path="url(#96ae7178d5)"><path fill="#fdfdfd" d="M 47.167969 47.167969 L 327.832031 47.167969 L 327.832031 327.832031 L 47.167969 327.832031 Z M 47.167969 47.167969 " fill-opacity="1" fill-rule="nonzero"/></g></g><g clip-path="url(#0c45c6d3fd)"><path fill="#f57b36" d="M 184.882812 176.78125 C 189.714844 184.636719 196.148438 200.773438 224.332031 198.203125 C 251.523438 195.722656 272.910156 183.480469 273.785156 169.796875 C 273.789062 169.96875 273.804688 170.140625 273.800781 170.316406 C 273.800781 170.167969 273.808594 170.03125 273.804688 169.886719 C 273.816406 169.632812 273.804688 169.375 273.800781 169.117188 C 273.804688 168.84375 273.816406 168.574219 273.804688 168.300781 C 273.816406 168.0625 273.804688 167.828125 273.800781 167.59375 C 273.804688 167.34375 273.816406 167.09375 273.804688 166.84375 C 273.816406 166.628906 273.800781 166.410156 273.800781 166.195312 C 273.800781 166.382812 273.78125 166.570312 273.769531 166.761719 C 272.769531 153.824219 251.433594 140.699219 224.332031 138.375 C 196.148438 135.960938 190.210938 151.472656 184.882812 158.503906 C 180.941406 163.691406 172.671875 163.199219 172.671875 163.199219 C 172.671875 163.199219 165.851562 162.839844 151.324219 161.722656 C 137.417969 160.652344 64.625 154.519531 51.414062 154.519531 C 39.003906 154.519531 27.4375 153.101562 26.5625 164.738281 C 26.554688 164.601562 26.53125 164.476562 26.527344 164.339844 L 26.523438 164.105469 C 26.511719 164.554688 26.511719 165.023438 26.527344 165.507812 C 26.511719 166.027344 26.503906 166.5625 26.527344 167.132812 L 26.53125 167.191406 C 26.523438 167.484375 26.515625 167.773438 26.515625 168.085938 C 26.523438 167.859375 26.542969 167.652344 26.554688 167.4375 C 27.441406 181.308594 49.558594 178.539062 49.558594 178.539062 C 49.558594 178.539062 136.714844 174.054688 151.242188 172.996094 C 166.960938 171.84375 172.671875 171.699219 172.671875 171.699219 C 172.671875 171.699219 181.390625 171.117188 184.882812 176.78125 " fill-opacity="1" fill-rule="nonzero"/></g><g clip-path="url(#9bd432fc8c)"><path fill="#f57b36" d="M 203.976562 204.519531 C 200.003906 204.519531 196.082031 203.546875 192.574219 201.71875 L 182.03125 193.132812 C 177.460938 189.402344 171.675781 187.480469 165.777344 187.683594 L 103.988281 193.171875 C 102.421875 193.226562 101.167969 194.515625 101.167969 196.027344 C 101.167969 197.539062 102.421875 198.734375 103.988281 198.675781 L 158.890625 196.007812 C 161.054688 195.933594 162.828125 197.5 162.828125 199.496094 C 162.828125 201.496094 161.054688 203.136719 158.890625 203.175781 L 103.988281 204.742188 C 102.421875 204.761719 101.167969 206.011719 101.167969 207.523438 C 101.167969 209.035156 102.421875 210.246094 103.988281 210.246094 L 158.890625 209.6875 C 161.054688 209.667969 162.828125 211.273438 162.828125 213.269531 C 162.828125 215.265625 161.054688 216.871094 158.890625 216.851562 L 103.988281 216.292969 C 102.421875 216.3125 101.167969 217.523438 101.167969 219.035156 C 101.167969 220.546875 102.421875 221.796875 103.988281 221.835938 L 158.890625 223.402344 C 161.054688 223.441406 162.828125 225.082031 162.828125 227.078125 C 162.828125 229.078125 161.054688 230.644531 158.890625 230.570312 L 103.988281 227.902344 C 102.421875 227.84375 101.167969 229.039062 101.167969 230.550781 C 101.167969 232.0625 102.421875 233.351562 103.988281 233.40625 L 165.777344 238.894531 C 171.675781 239.097656 177.441406 237.15625 182.03125 233.445312 L 192.574219 224.859375 C 196.101562 223.011719 200.003906 222.058594 203.976562 222.058594 C 203.976562 222.058594 262.96875 218.066406 319.902344 225.625 C 319.902344 225.625 348.492188 231.464844 348.492188 213.308594 C 348.492188 195.148438 319.902344 200.992188 319.902344 200.992188 C 262.96875 208.511719 203.976562 204.519531 203.976562 204.519531 Z M 203.976562 204.519531 " fill-opacity="1" fill-rule="nonzero"/></g></svg>